<svg width="1661" height="1560" viewBox="0 0 1661 1560" fill="none" xmlns="http://www.w3.org/2000/svg">
<g clip-path="url(#clip0_186_138)">
<path d="M457 355H0V475H457V355Z" fill="#343434"/>
<path d="M1263 0H23C10.2975 0 0 10.2975 0 23V91C0 103.703 10.2975 114 23 114H1263C1275.7 114 1286 103.703 1286 91V23C1286 10.2975 1275.7 0 1263 0Z" fill="#343434"/>
<path d="M765 1441H1286L1277.5 1557H765V1441Z" fill="#343434"/>
<path d="M1102 355H645V475H1102V355Z" fill="#343434"/>
<path d="M337 475L337 1555H457L457 475H337Z" fill="#343434"/>
<path d="M645 454L645 1555H765L765 454H645Z" fill="#343434"/>
<path d="M1240.94 1557.5C1293.8 1557.71 1342.95 1550.14 1391.87 1529.53C1440.78 1508.92 1488.05 1474.61 1525.58 1436.32C1563.1 1398.03 1592.93 1352.52 1613.35 1302.38C1633.78 1252.24 1644.4 1198.46 1644.61 1144.11C1644.82 1089.75 1634.62 1035.89 1614.59 985.593C1594.56 935.298 1565.09 889.554 1527.86 850.974C1490.64 812.393 1446.38 781.733 1397.63 760.742C1348.88 739.751 1296.58 728.841 1243.73 728.635V833.5C1281.96 833.649 1319.34 851.19 1354.6 866.374C1389.87 881.557 1421.88 903.735 1448.8 931.641C1475.73 959.547 1497.04 992.635 1511.53 1029.02C1526.02 1065.4 1533.4 1104.36 1533.25 1143.67C1533.1 1182.99 1525.41 1221.89 1510.64 1258.16C1495.87 1294.42 1474.29 1327.34 1447.15 1355.04C1420.01 1382.73 1387.83 1404.66 1352.45 1419.57C1317.07 1434.48 1279.18 1442.07 1240.94 1441.92V1557.5Z" fill="#343434"/>
<path d="M1240.4 834.564C1293.25 835.714 1345.81 826.138 1395.08 806.383C1444.36 786.628 1489.38 757.079 1527.59 719.425C1565.79 681.772 1596.43 636.749 1617.75 586.929C1639.06 537.109 1650.64 483.467 1651.83 429.066C1653.01 374.665 1643.78 320.569 1624.65 269.869C1605.52 219.168 1576.87 172.855 1540.34 133.574C1503.82 94.2928 1460.12 62.8128 1411.75 40.9313C1363.38 19.0497 1308.95 1.1505 1256.11 -0.00012207V113.299C1295.27 114.151 1333.88 122.937 1369.72 139.153C1405.57 155.369 1437.95 178.699 1465.02 207.81C1492.1 236.921 1513.32 271.243 1527.5 308.817C1541.68 346.391 1548.52 386.481 1547.64 426.797C1546.77 467.114 1538.18 506.868 1522.38 543.789C1506.59 580.711 1483.88 614.076 1455.57 641.981C1427.26 669.887 1393.89 691.785 1357.37 706.425C1320.85 721.066 1281.9 728.162 1242.74 727.31L1240.4 834.564Z" fill="#343434"/>
</g>
<defs>
<clipPath id="clip0_186_138">
<rect width="1661" height="1560" fill="white"/>
</clipPath>
</defs>
</svg>
